<?xml version="1.0" encoding="UTF-8"?>
<svg id="Camada_1" xmlns="http://www.w3.org/2000/svg" version="1.1" viewBox="0 0 1312 736">
  <!-- Generator: Adobe Illustrator 30.1.0, SVG Export Plug-In . SVG Version: 2.1.1 Build 136)  -->
  <defs>
    <style>
      .st0 {
        fill: #fcfcfc;
      }

      .st1 {
        fill: #7a3fff;
      }
    </style>
  </defs>
  <path class="st1" d="M664.2,227.8l-27.65,9.59,43.89,57.83-54.68,66.03-89.5,111.32-70,87.51-69.69,86.31c11.19-31.79,25.32-59.62,38.5-89.71l89.38-203.94-11.7-17.24c26.78-12.11,52.52-24.96,84.53-33.07l-100.77,183.59c-2.47,4.5-5.98,7.23-6.13,12.43l7.63-11.72,88.56-138.52,33.02-53.76-49.05-12.6c43.09-84.99,18.1-53.57,96.53-117.86l-43.49,4.36,57.59-116.04L813.44,3.89l42.1,99.07-73.79,82.74-47.37,51.4-45.58-1.9,77.27-109.76c2.78-.84,7.19-1.61,10.67-2l6.41,16.77,6.95-52.12c5.88-.4,10.39-.54,17.83-.38l-25.36-21.56,17.85-38.6c.92-2,3.35-3.65,2.71-6.21l-3.62,5.39-29.07,34.35-44.73,5.1c4.22,4.08,8.02,8.56,9.83,13.87l-50.01,45.5c-4.2,3.81-8.07,6.54-12.74,10.38,23.01-6.7,41.96-15.43,67.74-21.7l-76.35,113.54.02.02Z"/>
  <path class="st0" d="M90.72,451.26l57.11-75.66c16.12-36.66,33.2-76.15,53.94-111.05l3.1,26.38,76.51-45.77.24-47.32-81.07,11.31c-37.53,29.17-72.82,58.21-109.61,92.4l-.34-82.51L0,127.89c131.93-23.72,262.44-40.84,396.41-53.53l.16,235.41-78.61,43.81,87.16,150.11-21.81,64.66-65.8-1.31-113.23-177.71-.49,175.85-112.53,170.83-.51-284.76-.03.02Z"/>
  <path class="st0" d="M1082.84,213.09c-32.37,59.49-68.64,112.94-115.94,164.48l-.44-178.84-110.92-10.28,78.06-104.08c113.44,9.74,225.26,24.54,340.87,45.54l-101.71,96.57-89.92-13.41v.02Z"/>
  <path class="st0" d="M967.04,564.88l-.13-141.64c42.34-30.74,79.82-61.98,113.64-103.61l.1,413.8-113.62-168.58.02.02Z"/>
  <polygon class="st0" points="750.26 540.11 627.12 537.76 626.47 496.55 755.85 326.01 786.64 285.19 757.48 247.29 947.44 248.91 838.1 368.16 750.55 368.76 750.26 540.11"/>
  <polygon class="st0" points="505.45 289.32 440.18 322.59 439.61 69.35 583.23 63.56 584.87 129.23 505.45 289.32"/>
</svg>