<?xml version="1.0" encoding="UTF-8"?>
<svg id="Camada_1" xmlns="http://www.w3.org/2000/svg" version="1.1" viewBox="0 0 1312 736">
  <!-- Generator: Adobe Illustrator 30.1.0, SVG Export Plug-In . SVG Version: 2.1.1 Build 136)  -->
  <defs>
    <style>
      .st0 {
        fill: #fff;
      }

      .st1 {
        fill: #fcfcfc;
      }

      .st2 {
        fill: #7a3fff;
      }
    </style>
  </defs>
  <g>
    <path class="st2" d="M695.48,256.49l-26.74,10.99,42.44,66.25-52.87,75.64-86.54,127.52-67.68,100.24-67.38,98.87c10.82-36.42,24.48-68.3,37.23-102.77l86.42-233.62-11.31-19.75c25.89-13.87,50.78-28.59,81.73-37.88l-97.44,210.31c-2.39,5.16-5.78,8.28-5.93,14.24l7.38-13.43,85.63-158.68,31.93-61.58-47.43-14.43c41.66-97.36,17.5-61.37,93.34-135.01l-42.05,5,55.68-132.93L839.78,0l40.71,113.49-71.35,94.78-45.8,58.88-44.07-2.18,74.71-125.73c2.69-.96,6.95-1.85,10.32-2.29l6.2,19.21,6.72-59.7c5.69-.46,10.05-.62,17.24-.43l-24.52-24.7,17.26-44.22c.89-2.29,3.24-4.18,2.62-7.11l-3.5,6.18-28.11,39.35-43.25,5.84c4.08,4.67,7.75,9.8,9.5,15.89l-48.36,52.12c-4.06,4.37-7.8,7.49-12.32,11.89,22.25-7.67,40.57-17.67,65.5-24.86l-73.82,130.06Z"/>
    <path class="st1" d="M321.13,430.19l35-46.37c9.88-22.47,20.35-46.67,33.06-68.06l1.9,16.17,46.89-28.05.15-29-49.69,6.93c-23,17.88-44.63,35.68-67.18,56.63l-.21-50.57-55.52-55.87c80.86-14.54,160.85-25.03,242.96-32.81l.1,144.28-48.18,26.85,53.42,92-13.37,39.63-40.33-.8-69.4-108.92-.3,107.78-68.97,104.7-.31-174.53Z"/>
    <path class="st1" d="M929.2,284.22c-19.84,36.46-42.07,69.22-71.06,100.81l-.27-109.61-67.98-6.3,47.84-63.79c69.53,5.97,138.06,15.04,208.92,27.91l-62.34,59.19-55.11-8.22Z"/>
    <path class="st1" d="M858.23,499.83l-.08-86.81c25.95-18.84,48.92-37.99,69.65-63.5l.06,253.62-69.64-103.32Z"/>
    <polygon class="st1" points="717.24 484.65 645.41 483.21 645.03 457.95 720.5 353.43 738.46 328.41 721.45 305.18 832.26 306.17 768.48 379.26 717.41 379.63 717.24 484.65"/>
    <polygon class="st1" points="567.86 330.94 535.25 351.33 534.97 196.12 606.72 192.57 607.54 232.82 567.86 330.94"/>
  </g>
  <g>
    <path class="st0" d="M608.9,532.99c0-1.44.35-2.77,1.05-3.97s1.65-2.16,2.85-2.86c1.2-.7,2.52-1.05,3.97-1.05h31.48c1.44,0,2.76.35,3.97,1.05,1.2.7,2.15,1.65,2.85,2.86.7,1.2,1.05,2.53,1.05,3.97v39.4h-5.31v-17.27h-36.59v17.27h-5.31v-39.4h0ZM650.8,549.79v-16.81c0-.7-.25-1.3-.75-1.81-.5-.5-1.1-.75-1.8-.75h-31.48c-.7,0-1.3.25-1.8.75s-.75,1.11-.75,1.81v16.81h36.59-.01Z"/>
    <path class="st0" d="M663.59,572.38v-47.21h39.34c1.44,0,2.77.36,3.97,1.08,1.2.72,2.15,1.67,2.85,2.86s1.05,2.5,1.05,3.94v13.85c0,1.44-.35,2.76-1.05,3.94s-1.65,2.13-2.85,2.86c-1.2.72-2.53,1.08-3.97,1.08h-34.03v17.6h-5.31ZM671.46,549.4h31.47c.7,0,1.3-.24,1.8-.72s.75-1.07.75-1.77v-13.85c0-.7-.25-1.3-.75-1.81-.5-.5-1.11-.75-1.8-.75h-31.47c-.7,0-1.3.25-1.8.75s-.75,1.11-.75,1.81v13.85c0,.7.25,1.29.75,1.77.5.48,1.1.72,1.8.72ZM703.46,572.38l-15.41-18.38h6.95l15.47,18.32v.07h-7.02.01Z"/>
    <path class="st0" d="M717.82,572.38v-47.28h43.08v5.32h-37.77v15.63h30.36v5.38h-30.36v15.63h37.77v5.32h-43.08Z"/>
    <path class="st0" d="M767.92,572.38v-47.28h7.28l34.62,41.24v-41.24h5.31v47.28h-7.28l-34.62-41.24v41.24h-5.31Z"/>
    <path class="st0" d="M822.6,532.99c0-1.44.35-2.77,1.05-3.97s1.65-2.16,2.85-2.86c1.2-.7,2.52-1.05,3.97-1.05h31.48c1.44,0,2.76.35,3.97,1.05,1.2.7,2.15,1.65,2.85,2.86.7,1.2,1.05,2.53,1.05,3.97v39.4h-5.31v-17.27h-36.59v17.27h-5.31v-39.4h0ZM864.5,549.79v-16.81c0-.7-.25-1.3-.75-1.81-.5-.5-1.1-.75-1.8-.75h-31.48c-.7,0-1.3.25-1.8.75s-.75,1.11-.75,1.81v16.81h36.59-.01Z"/>
  </g>
</svg>